<svg width="136" height="76" viewBox="0 0 136 76" fill="none" xmlns="http://www.w3.org/2000/svg">
<g filter="url(#filter0_d_512_8442)">
<rect x="20" y="16" width="96" height="36" rx="10" fill="url(#paint0_linear_512_8442)"/>
</g>
<path d="M57.7646 38H58.9166L55.9046 29.684H54.6446L51.6206 38H52.7726L53.4446 36.14H57.0926L57.7646 38ZM56.7806 35.252H53.7566L55.2686 31.028L56.7806 35.252ZM59.8265 34.688C59.8265 36.728 61.1825 38.108 62.9465 38.108C64.1465 38.108 64.9985 37.496 65.3945 36.764V38H66.4985V29.12H65.3945V32.6C64.9385 31.844 63.9905 31.316 62.9585 31.316C61.1825 31.316 59.8265 32.636 59.8265 34.688ZM65.3945 34.7C65.3945 36.248 64.3625 37.148 63.1625 37.148C61.9625 37.148 60.9425 36.236 60.9425 34.688C60.9425 33.14 61.9625 32.264 63.1625 32.264C64.3625 32.264 65.3945 33.176 65.3945 34.7ZM67.9359 34.688C67.9359 36.728 69.2919 38.108 71.0559 38.108C72.2559 38.108 73.1079 37.496 73.5039 36.764V38H74.6079V29.12H73.5039V32.6C73.0479 31.844 72.0999 31.316 71.0679 31.316C69.2919 31.316 67.9359 32.636 67.9359 34.688ZM73.5039 34.7C73.5039 36.248 72.4719 37.148 71.2719 37.148C70.0719 37.148 69.0519 36.236 69.0519 34.688C69.0519 33.14 70.0719 32.264 71.2719 32.264C72.4719 32.264 73.5039 33.176 73.5039 34.7ZM79.1365 30.524H81.4285V38H82.5205V30.524H84.8005V29.636H79.1365V30.524ZM85.7367 34.688C85.7367 36.728 87.0927 38.108 88.8447 38.108C90.0567 38.108 90.9087 37.484 91.3047 36.776V38H92.4087V31.424H91.3047V32.624C90.9207 31.94 90.0807 31.316 88.8567 31.316C87.0927 31.316 85.7367 32.636 85.7367 34.688ZM91.3047 34.7C91.3047 36.248 90.2727 37.148 89.0727 37.148C87.8727 37.148 86.8527 36.236 86.8527 34.688C86.8527 33.14 87.8727 32.264 89.0727 32.264C90.2727 32.264 91.3047 33.176 91.3047 34.7ZM98.9821 36.212C98.9341 33.86 95.1181 34.712 95.1181 33.152C95.1181 32.624 95.5981 32.24 96.4021 32.24C97.2781 32.24 97.7821 32.72 97.8301 33.38H98.9221C98.8501 32.096 97.8901 31.316 96.4381 31.316C94.9741 31.316 94.0261 32.144 94.0261 33.152C94.0261 35.6 97.9141 34.748 97.9141 36.212C97.9141 36.752 97.4341 37.184 96.5701 37.184C95.6461 37.184 95.0821 36.704 95.0221 36.068H93.8941C93.9661 37.268 95.0461 38.108 96.5821 38.108C98.0341 38.108 98.9821 37.292 98.9821 36.212ZM100.524 38H101.616V35.096L104.196 38H105.684L102.576 34.7L105.672 31.424H104.148L101.616 34.34V29.12H100.524V38Z" fill="white"/>
<path d="M45 34H33M39 28V40V28Z" stroke="white" stroke-width="2" stroke-linecap="round" stroke-linejoin="round"/>
<defs>
<filter id="filter0_d_512_8442" x="0" y="0" width="136" height="76" filterUnits="userSpaceOnUse" color-interpolation-filters="sRGB">
<feFlood flood-opacity="0" result="BackgroundImageFix"/>
<feColorMatrix in="SourceAlpha" type="matrix" values="0 0 0 0 0 0 0 0 0 0 0 0 0 0 0 0 0 0 127 0" result="hardAlpha"/>
<feOffset dy="4"/>
<feGaussianBlur stdDeviation="10"/>
<feComposite in2="hardAlpha" operator="out"/>
<feColorMatrix type="matrix" values="0 0 0 0 0.0509804 0 0 0 0 0.376471 0 0 0 0 0.87451 0 0 0 0.2 0"/>
<feBlend mode="normal" in2="BackgroundImageFix" result="effect1_dropShadow_512_8442"/>
<feBlend mode="normal" in="SourceGraphic" in2="effect1_dropShadow_512_8442" result="shape"/>
</filter>
<linearGradient id="paint0_linear_512_8442" x1="20" y1="34" x2="116" y2="34" gradientUnits="userSpaceOnUse">
<stop stop-color="#006EE9"/>
<stop offset="0.989583" stop-color="#105CDB"/>
</linearGradient>
</defs>
</svg>
