<svg width="345" height="38" viewBox="0 0 345 38" fill="none" xmlns="http://www.w3.org/2000/svg">
<path d="M80.528 14.636C81.44 14.636 82.228 14.808 82.892 15.152C83.564 15.488 84.076 15.972 84.428 16.604C84.788 17.236 84.968 17.98 84.968 18.836C84.968 19.692 84.788 20.436 84.428 21.068C84.076 21.692 83.564 22.172 82.892 22.508C82.228 22.836 81.44 23 80.528 23H77.924V14.636H80.528ZM80.528 22.1C81.608 22.1 82.432 21.816 83 21.248C83.568 20.672 83.852 19.868 83.852 18.836C83.852 17.796 83.564 16.984 82.988 16.4C82.42 15.816 81.6 15.524 80.528 15.524H79.016V22.1H80.528ZM89.2764 23.108C88.6604 23.108 88.1004 22.968 87.5964 22.688C87.1004 22.408 86.7084 22.012 86.4204 21.5C86.1404 20.98 86.0004 20.38 86.0004 19.7C86.0004 19.028 86.1444 18.436 86.4324 17.924C86.7284 17.404 87.1284 17.008 87.6324 16.736C88.1364 16.456 88.7004 16.316 89.3244 16.316C89.9484 16.316 90.5124 16.456 91.0164 16.736C91.5204 17.008 91.9164 17.4 92.2044 17.912C92.5004 18.424 92.6484 19.02 92.6484 19.7C92.6484 20.38 92.4964 20.98 92.1924 21.5C91.8964 22.012 91.4924 22.408 90.9804 22.688C90.4684 22.968 89.9004 23.108 89.2764 23.108ZM89.2764 22.148C89.6684 22.148 90.0364 22.056 90.3804 21.872C90.7244 21.688 91.0004 21.412 91.2084 21.044C91.4244 20.676 91.5324 20.228 91.5324 19.7C91.5324 19.172 91.4284 18.724 91.2204 18.356C91.0124 17.988 90.7404 17.716 90.4044 17.54C90.0684 17.356 89.7044 17.264 89.3124 17.264C88.9124 17.264 88.5444 17.356 88.2084 17.54C87.8804 17.716 87.6164 17.988 87.4164 18.356C87.2164 18.724 87.1164 19.172 87.1164 19.7C87.1164 20.236 87.2124 20.688 87.4044 21.056C87.6044 21.424 87.8684 21.7 88.1964 21.884C88.5244 22.06 88.8844 22.148 89.2764 22.148ZM97.2882 16.304C98.0882 16.304 98.7362 16.548 99.2322 17.036C99.7282 17.516 99.9762 18.212 99.9762 19.124V23H98.8962V19.28C98.8962 18.624 98.7322 18.124 98.4042 17.78C98.0762 17.428 97.6282 17.252 97.0602 17.252C96.4842 17.252 96.0242 17.432 95.6802 17.792C95.3442 18.152 95.1762 18.676 95.1762 19.364V23H94.0842V16.424H95.1762V17.36C95.3922 17.024 95.6842 16.764 96.0522 16.58C96.4282 16.396 96.8402 16.304 97.2882 16.304ZM101.928 14.636H103.14L101.988 17.36H101.22L101.928 14.636ZM105.717 17.324V21.2C105.717 21.52 105.785 21.748 105.921 21.884C106.057 22.012 106.293 22.076 106.629 22.076H107.433V23H106.449C105.841 23 105.385 22.86 105.081 22.58C104.777 22.3 104.625 21.84 104.625 21.2V17.324H103.773V16.424H104.625V14.768H105.717V16.424H107.433V17.324H105.717ZM115.219 16.304C115.715 16.304 116.163 16.412 116.563 16.628C116.963 16.836 117.275 17.152 117.499 17.576C117.731 18 117.847 18.516 117.847 19.124V23H116.767V19.28C116.767 18.624 116.603 18.124 116.275 17.78C115.947 17.428 115.499 17.252 114.931 17.252C114.355 17.252 113.895 17.432 113.551 17.792C113.215 18.152 113.047 18.676 113.047 19.364V23H111.955V14.12H113.047V17.36C113.263 17.024 113.559 16.764 113.935 16.58C114.319 16.396 114.747 16.304 115.219 16.304ZM119.223 19.688C119.223 19.016 119.359 18.428 119.631 17.924C119.903 17.412 120.275 17.016 120.747 16.736C121.227 16.456 121.759 16.316 122.343 16.316C122.919 16.316 123.419 16.44 123.843 16.688C124.267 16.936 124.583 17.248 124.791 17.624V16.424H125.895V23H124.791V21.776C124.575 22.16 124.251 22.48 123.819 22.736C123.395 22.984 122.899 23.108 122.331 23.108C121.747 23.108 121.219 22.964 120.747 22.676C120.275 22.388 119.903 21.984 119.631 21.464C119.359 20.944 119.223 20.352 119.223 19.688ZM124.791 19.7C124.791 19.204 124.691 18.772 124.491 18.404C124.291 18.036 124.019 17.756 123.675 17.564C123.339 17.364 122.967 17.264 122.559 17.264C122.151 17.264 121.779 17.36 121.443 17.552C121.107 17.744 120.839 18.024 120.639 18.392C120.439 18.76 120.339 19.192 120.339 19.688C120.339 20.192 120.439 20.632 120.639 21.008C120.839 21.376 121.107 21.66 121.443 21.86C121.779 22.052 122.151 22.148 122.559 22.148C122.967 22.148 123.339 22.052 123.675 21.86C124.019 21.66 124.291 21.376 124.491 21.008C124.691 20.632 124.791 20.196 124.791 19.7ZM130.188 21.992L132.228 16.424H133.392L130.812 23H129.54L126.96 16.424H128.136L130.188 21.992ZM140.467 19.46C140.467 19.668 140.455 19.888 140.431 20.12H135.175C135.215 20.768 135.435 21.276 135.835 21.644C136.243 22.004 136.735 22.184 137.311 22.184C137.783 22.184 138.175 22.076 138.487 21.86C138.807 21.636 139.031 21.34 139.159 20.972H140.335C140.159 21.604 139.807 22.12 139.279 22.52C138.751 22.912 138.095 23.108 137.311 23.108C136.687 23.108 136.127 22.968 135.631 22.688C135.143 22.408 134.759 22.012 134.479 21.5C134.199 20.98 134.059 20.38 134.059 19.7C134.059 19.02 134.195 18.424 134.467 17.912C134.739 17.4 135.119 17.008 135.607 16.736C136.103 16.456 136.671 16.316 137.311 16.316C137.935 16.316 138.487 16.452 138.967 16.724C139.447 16.996 139.815 17.372 140.071 17.852C140.335 18.324 140.467 18.86 140.467 19.46ZM139.339 19.232C139.339 18.816 139.247 18.46 139.063 18.164C138.879 17.86 138.627 17.632 138.307 17.48C137.995 17.32 137.647 17.24 137.263 17.24C136.711 17.24 136.239 17.416 135.847 17.768C135.463 18.12 135.243 18.608 135.187 19.232H139.339ZM144.7 19.688C144.7 19.016 144.836 18.428 145.108 17.924C145.38 17.412 145.752 17.016 146.224 16.736C146.704 16.456 147.236 16.316 147.82 16.316C148.396 16.316 148.896 16.44 149.32 16.688C149.744 16.936 150.06 17.248 150.268 17.624V16.424H151.372V23H150.268V21.776C150.052 22.16 149.728 22.48 149.296 22.736C148.872 22.984 148.376 23.108 147.808 23.108C147.224 23.108 146.696 22.964 146.224 22.676C145.752 22.388 145.38 21.984 145.108 21.464C144.836 20.944 144.7 20.352 144.7 19.688ZM150.268 19.7C150.268 19.204 150.168 18.772 149.968 18.404C149.768 18.036 149.496 17.756 149.152 17.564C148.816 17.364 148.444 17.264 148.036 17.264C147.628 17.264 147.256 17.36 146.92 17.552C146.584 17.744 146.316 18.024 146.116 18.392C145.916 18.76 145.816 19.192 145.816 19.688C145.816 20.192 145.916 20.632 146.116 21.008C146.316 21.376 146.584 21.66 146.92 21.86C147.256 22.052 147.628 22.148 148.036 22.148C148.444 22.148 148.816 22.052 149.152 21.86C149.496 21.66 149.768 21.376 149.968 21.008C150.168 20.632 150.268 20.196 150.268 19.7ZM156.421 16.304C157.221 16.304 157.869 16.548 158.365 17.036C158.861 17.516 159.109 18.212 159.109 19.124V23H158.029V19.28C158.029 18.624 157.865 18.124 157.537 17.78C157.209 17.428 156.761 17.252 156.193 17.252C155.617 17.252 155.157 17.432 154.813 17.792C154.477 18.152 154.309 18.676 154.309 19.364V23H153.217V16.424H154.309V17.36C154.525 17.024 154.817 16.764 155.185 16.58C155.561 16.396 155.973 16.304 156.421 16.304ZM163.684 19.688C163.684 19.016 163.82 18.428 164.092 17.924C164.364 17.412 164.736 17.016 165.208 16.736C165.688 16.456 166.22 16.316 166.804 16.316C167.38 16.316 167.88 16.44 168.304 16.688C168.728 16.936 169.044 17.248 169.252 17.624V16.424H170.356V23H169.252V21.776C169.036 22.16 168.712 22.48 168.28 22.736C167.856 22.984 167.36 23.108 166.792 23.108C166.208 23.108 165.68 22.964 165.208 22.676C164.736 22.388 164.364 21.984 164.092 21.464C163.82 20.944 163.684 20.352 163.684 19.688ZM169.252 19.7C169.252 19.204 169.152 18.772 168.952 18.404C168.752 18.036 168.48 17.756 168.136 17.564C167.8 17.364 167.428 17.264 167.02 17.264C166.612 17.264 166.24 17.36 165.904 17.552C165.568 17.744 165.3 18.024 165.1 18.392C164.9 18.76 164.8 19.192 164.8 19.688C164.8 20.192 164.9 20.632 165.1 21.008C165.3 21.376 165.568 21.66 165.904 21.86C166.24 22.052 166.612 22.148 167.02 22.148C167.428 22.148 167.8 22.052 168.136 21.86C168.48 21.66 168.752 21.376 168.952 21.008C169.152 20.632 169.252 20.196 169.252 19.7ZM171.793 19.7C171.793 19.02 171.929 18.428 172.201 17.924C172.473 17.412 172.849 17.016 173.329 16.736C173.817 16.456 174.373 16.316 174.997 16.316C175.805 16.316 176.469 16.512 176.989 16.904C177.517 17.296 177.865 17.84 178.033 18.536H176.857C176.745 18.136 176.525 17.82 176.197 17.588C175.877 17.356 175.477 17.24 174.997 17.24C174.373 17.24 173.869 17.456 173.485 17.888C173.101 18.312 172.909 18.916 172.909 19.7C172.909 20.492 173.101 21.104 173.485 21.536C173.869 21.968 174.373 22.184 174.997 22.184C175.477 22.184 175.877 22.072 176.197 21.848C176.517 21.624 176.737 21.304 176.857 20.888H178.033C177.857 21.56 177.505 22.1 176.977 22.508C176.449 22.908 175.789 23.108 174.997 23.108C174.373 23.108 173.817 22.968 173.329 22.688C172.849 22.408 172.473 22.012 172.201 21.5C171.929 20.988 171.793 20.388 171.793 19.7ZM179.082 19.7C179.082 19.02 179.218 18.428 179.49 17.924C179.762 17.412 180.138 17.016 180.618 16.736C181.106 16.456 181.662 16.316 182.286 16.316C183.094 16.316 183.758 16.512 184.278 16.904C184.806 17.296 185.154 17.84 185.322 18.536H184.146C184.034 18.136 183.814 17.82 183.486 17.588C183.166 17.356 182.766 17.24 182.286 17.24C181.662 17.24 181.158 17.456 180.774 17.888C180.39 18.312 180.198 18.916 180.198 19.7C180.198 20.492 180.39 21.104 180.774 21.536C181.158 21.968 181.662 22.184 182.286 22.184C182.766 22.184 183.166 22.072 183.486 21.848C183.806 21.624 184.026 21.304 184.146 20.888H185.322C185.146 21.56 184.794 22.1 184.266 22.508C183.738 22.908 183.078 23.108 182.286 23.108C181.662 23.108 181.106 22.968 180.618 22.688C180.138 22.408 179.762 22.012 179.49 21.5C179.218 20.988 179.082 20.388 179.082 19.7ZM189.647 23.108C189.031 23.108 188.471 22.968 187.967 22.688C187.471 22.408 187.079 22.012 186.791 21.5C186.511 20.98 186.371 20.38 186.371 19.7C186.371 19.028 186.515 18.436 186.803 17.924C187.099 17.404 187.499 17.008 188.003 16.736C188.507 16.456 189.071 16.316 189.695 16.316C190.319 16.316 190.883 16.456 191.387 16.736C191.891 17.008 192.287 17.4 192.575 17.912C192.871 18.424 193.019 19.02 193.019 19.7C193.019 20.38 192.867 20.98 192.563 21.5C192.267 22.012 191.863 22.408 191.351 22.688C190.839 22.968 190.271 23.108 189.647 23.108ZM189.647 22.148C190.039 22.148 190.407 22.056 190.751 21.872C191.095 21.688 191.371 21.412 191.579 21.044C191.795 20.676 191.903 20.228 191.903 19.7C191.903 19.172 191.799 18.724 191.591 18.356C191.383 17.988 191.111 17.716 190.775 17.54C190.439 17.356 190.075 17.264 189.683 17.264C189.283 17.264 188.915 17.356 188.579 17.54C188.251 17.716 187.987 17.988 187.787 18.356C187.587 18.724 187.487 19.172 187.487 19.7C187.487 20.236 187.583 20.688 187.775 21.056C187.975 21.424 188.239 21.7 188.567 21.884C188.895 22.06 189.255 22.148 189.647 22.148ZM200.287 16.424V23H199.195V22.028C198.987 22.364 198.695 22.628 198.319 22.82C197.951 23.004 197.543 23.096 197.095 23.096C196.583 23.096 196.123 22.992 195.715 22.784C195.307 22.568 194.983 22.248 194.743 21.824C194.511 21.4 194.395 20.884 194.395 20.276V16.424H195.475V20.132C195.475 20.78 195.639 21.28 195.967 21.632C196.295 21.976 196.743 22.148 197.311 22.148C197.895 22.148 198.355 21.968 198.691 21.608C199.027 21.248 199.195 20.724 199.195 20.036V16.424H200.287ZM205.335 16.304C206.135 16.304 206.783 16.548 207.279 17.036C207.775 17.516 208.023 18.212 208.023 19.124V23H206.943V19.28C206.943 18.624 206.779 18.124 206.451 17.78C206.123 17.428 205.675 17.252 205.107 17.252C204.531 17.252 204.071 17.432 203.727 17.792C203.391 18.152 203.223 18.676 203.223 19.364V23H202.131V16.424H203.223V17.36C203.439 17.024 203.731 16.764 204.099 16.58C204.475 16.396 204.887 16.304 205.335 16.304ZM211.139 17.324V21.2C211.139 21.52 211.207 21.748 211.343 21.884C211.479 22.012 211.715 22.076 212.051 22.076H212.855V23H211.871C211.263 23 210.807 22.86 210.503 22.58C210.199 22.3 210.047 21.84 210.047 21.2V17.324H209.195V16.424H210.047V14.768H211.139V16.424H212.855V17.324H211.139ZM216.314 14.528C217.106 14.528 217.746 14.752 218.234 15.2C218.722 15.648 218.966 16.248 218.966 17C218.966 17.84 218.706 18.464 218.186 18.872C217.666 19.272 216.962 19.472 216.074 19.472L216.038 20.612H215.09L215.042 18.716H215.39C216.182 18.716 216.802 18.596 217.25 18.356C217.698 18.116 217.922 17.664 217.922 17C217.922 16.52 217.778 16.14 217.49 15.86C217.202 15.58 216.814 15.44 216.326 15.44C215.83 15.44 215.438 15.576 215.15 15.848C214.87 16.112 214.73 16.476 214.73 16.94H213.698C213.698 16.46 213.806 16.04 214.022 15.68C214.238 15.312 214.542 15.028 214.934 14.828C215.334 14.628 215.794 14.528 216.314 14.528ZM215.558 23.072C215.35 23.072 215.174 23 215.03 22.856C214.886 22.712 214.814 22.536 214.814 22.328C214.814 22.12 214.886 21.944 215.03 21.8C215.174 21.656 215.35 21.584 215.558 21.584C215.758 21.584 215.926 21.656 216.062 21.8C216.206 21.944 216.278 22.12 216.278 22.328C216.278 22.536 216.206 22.712 216.062 22.856C215.926 23 215.758 23.072 215.558 23.072Z" fill="#474747"/>
<path d="M226.322 23.084C225.77 23.084 225.274 22.988 224.834 22.796C224.402 22.596 224.062 22.324 223.814 21.98C223.566 21.628 223.438 21.224 223.43 20.768H224.594C224.634 21.16 224.794 21.492 225.074 21.764C225.362 22.028 225.778 22.16 226.322 22.16C226.842 22.16 227.25 22.032 227.546 21.776C227.85 21.512 228.002 21.176 228.002 20.768C228.002 20.448 227.914 20.188 227.738 19.988C227.562 19.788 227.342 19.636 227.078 19.532C226.814 19.428 226.458 19.316 226.01 19.196C225.458 19.052 225.014 18.908 224.678 18.764C224.35 18.62 224.066 18.396 223.826 18.092C223.594 17.78 223.478 17.364 223.478 16.844C223.478 16.388 223.594 15.984 223.826 15.632C224.058 15.28 224.382 15.008 224.798 14.816C225.222 14.624 225.706 14.528 226.25 14.528C227.034 14.528 227.674 14.724 228.17 15.116C228.674 15.508 228.958 16.028 229.022 16.676H227.822C227.782 16.356 227.614 16.076 227.318 15.836C227.022 15.588 226.63 15.464 226.142 15.464C225.686 15.464 225.314 15.584 225.026 15.824C224.738 16.056 224.594 16.384 224.594 16.808C224.594 17.112 224.678 17.36 224.846 17.552C225.022 17.744 225.234 17.892 225.482 17.996C225.738 18.092 226.094 18.204 226.55 18.332C227.102 18.484 227.546 18.636 227.882 18.788C228.218 18.932 228.506 19.16 228.746 19.472C228.986 19.776 229.106 20.192 229.106 20.72C229.106 21.128 228.998 21.512 228.782 21.872C228.566 22.232 228.246 22.524 227.822 22.748C227.398 22.972 226.898 23.084 226.322 23.084ZM231.277 15.356C231.069 15.356 230.893 15.284 230.749 15.14C230.605 14.996 230.533 14.82 230.533 14.612C230.533 14.404 230.605 14.228 230.749 14.084C230.893 13.94 231.069 13.868 231.277 13.868C231.477 13.868 231.645 13.94 231.781 14.084C231.925 14.228 231.997 14.404 231.997 14.612C231.997 14.82 231.925 14.996 231.781 15.14C231.645 15.284 231.477 15.356 231.277 15.356ZM231.805 16.424V23H230.713V16.424H231.805ZM236.378 16.316C236.946 16.316 237.442 16.44 237.866 16.688C238.298 16.936 238.618 17.248 238.826 17.624V16.424H239.93V23.144C239.93 23.744 239.802 24.276 239.546 24.74C239.29 25.212 238.922 25.58 238.442 25.844C237.97 26.108 237.418 26.24 236.786 26.24C235.922 26.24 235.202 26.036 234.626 25.628C234.05 25.22 233.71 24.664 233.606 23.96H234.686C234.806 24.36 235.054 24.68 235.43 24.92C235.806 25.168 236.258 25.292 236.786 25.292C237.386 25.292 237.874 25.104 238.25 24.728C238.634 24.352 238.826 23.824 238.826 23.144V21.764C238.61 22.148 238.29 22.468 237.866 22.724C237.442 22.98 236.946 23.108 236.378 23.108C235.794 23.108 235.262 22.964 234.782 22.676C234.31 22.388 233.938 21.984 233.666 21.464C233.394 20.944 233.258 20.352 233.258 19.688C233.258 19.016 233.394 18.428 233.666 17.924C233.938 17.412 234.31 17.016 234.782 16.736C235.262 16.456 235.794 16.316 236.378 16.316ZM238.826 19.7C238.826 19.204 238.726 18.772 238.526 18.404C238.326 18.036 238.054 17.756 237.71 17.564C237.374 17.364 237.002 17.264 236.594 17.264C236.186 17.264 235.814 17.36 235.478 17.552C235.142 17.744 234.874 18.024 234.674 18.392C234.474 18.76 234.374 19.192 234.374 19.688C234.374 20.192 234.474 20.632 234.674 21.008C234.874 21.376 235.142 21.66 235.478 21.86C235.814 22.052 236.186 22.148 236.594 22.148C237.002 22.148 237.374 22.052 237.71 21.86C238.054 21.66 238.326 21.376 238.526 21.008C238.726 20.632 238.826 20.196 238.826 19.7ZM244.98 16.304C245.78 16.304 246.428 16.548 246.924 17.036C247.42 17.516 247.668 18.212 247.668 19.124V23H246.588V19.28C246.588 18.624 246.424 18.124 246.096 17.78C245.768 17.428 245.32 17.252 244.752 17.252C244.176 17.252 243.716 17.432 243.372 17.792C243.036 18.152 242.868 18.676 242.868 19.364V23H241.776V16.424H242.868V17.36C243.084 17.024 243.376 16.764 243.744 16.58C244.12 16.396 244.532 16.304 244.98 16.304ZM253.719 14.636V19.928C253.719 20.672 253.899 21.224 254.259 21.584C254.627 21.944 255.135 22.124 255.783 22.124C256.423 22.124 256.923 21.944 257.283 21.584C257.651 21.224 257.835 20.672 257.835 19.928V14.636H258.927V19.916C258.927 20.612 258.787 21.2 258.507 21.68C258.227 22.152 257.847 22.504 257.367 22.736C256.895 22.968 256.363 23.084 255.771 23.084C255.179 23.084 254.643 22.968 254.163 22.736C253.691 22.504 253.315 22.152 253.035 21.68C252.763 21.2 252.627 20.612 252.627 19.916V14.636H253.719ZM261.84 17.636C262.056 17.26 262.376 16.948 262.8 16.7C263.232 16.444 263.732 16.316 264.3 16.316C264.884 16.316 265.412 16.456 265.884 16.736C266.364 17.016 266.74 17.412 267.012 17.924C267.284 18.428 267.42 19.016 267.42 19.688C267.42 20.352 267.284 20.944 267.012 21.464C266.74 21.984 266.364 22.388 265.884 22.676C265.412 22.964 264.884 23.108 264.3 23.108C263.74 23.108 263.244 22.984 262.812 22.736C262.388 22.48 262.064 22.164 261.84 21.788V26.12H260.748V16.424H261.84V17.636ZM266.304 19.688C266.304 19.192 266.204 18.76 266.004 18.392C265.804 18.024 265.532 17.744 265.188 17.552C264.852 17.36 264.48 17.264 264.072 17.264C263.672 17.264 263.3 17.364 262.956 17.564C262.62 17.756 262.348 18.04 262.14 18.416C261.94 18.784 261.84 19.212 261.84 19.7C261.84 20.196 261.94 20.632 262.14 21.008C262.348 21.376 262.62 21.66 262.956 21.86C263.3 22.052 263.672 22.148 264.072 22.148C264.48 22.148 264.852 22.052 265.188 21.86C265.532 21.66 265.804 21.376 266.004 21.008C266.204 20.632 266.304 20.192 266.304 19.688Z" fill="#006EE9"/>
</svg>
