<svg width="122" height="20" viewBox="0 0 122 20" fill="none" xmlns="http://www.w3.org/2000/svg">
<line y1="9.5" x2="10" y2="9.5" stroke="#006EE9"/>
<path d="M21.502 15.098C20.5967 15.098 19.7707 14.888 19.024 14.468C18.2773 14.0387 17.6847 13.446 17.246 12.69C16.8167 11.9247 16.602 11.066 16.602 10.114C16.602 9.162 16.8167 8.308 17.246 7.552C17.6847 6.78667 18.2773 6.194 19.024 5.774C19.7707 5.34467 20.5967 5.13 21.502 5.13C22.4167 5.13 23.2473 5.34467 23.994 5.774C24.7407 6.194 25.3287 6.782 25.758 7.538C26.1873 8.294 26.402 9.15267 26.402 10.114C26.402 11.0753 26.1873 11.934 25.758 12.69C25.3287 13.446 24.7407 14.0387 23.994 14.468C23.2473 14.888 22.4167 15.098 21.502 15.098ZM21.502 13.992C22.1833 13.992 22.7947 13.8333 23.336 13.516C23.8867 13.1987 24.316 12.746 24.624 12.158C24.9413 11.57 25.1 10.8887 25.1 10.114C25.1 9.33 24.9413 8.64867 24.624 8.07C24.316 7.482 23.8913 7.02933 23.35 6.712C22.8087 6.39467 22.1927 6.236 21.502 6.236C20.8113 6.236 20.1953 6.39467 19.654 6.712C19.1127 7.02933 18.6833 7.482 18.366 8.07C18.058 8.64867 17.904 9.33 17.904 10.114C17.904 10.8887 18.058 11.57 18.366 12.158C18.6833 12.746 19.1127 13.1987 19.654 13.516C20.2047 13.8333 20.8207 13.992 21.502 13.992ZM29.3579 8.574C29.5819 8.13533 29.8992 7.79467 30.3099 7.552C30.7299 7.30933 31.2385 7.188 31.8359 7.188V8.504H31.4999C30.0719 8.504 29.3579 9.27867 29.3579 10.828V15H28.0839V7.328H29.3579V8.574ZM38.3129 13.964H41.7289V15H37.0389V5.242H38.3129V13.964ZM46.4279 15.126C45.7092 15.126 45.0559 14.9627 44.4679 14.636C43.8892 14.3093 43.4319 13.8473 43.0959 13.25C42.7692 12.6433 42.6059 11.9433 42.6059 11.15C42.6059 10.366 42.7739 9.67533 43.1099 9.078C43.4552 8.47133 43.9219 8.00933 44.5099 7.692C45.0979 7.36533 45.7559 7.202 46.4839 7.202C47.2119 7.202 47.8699 7.36533 48.4579 7.692C49.0459 8.00933 49.5079 8.46667 49.8439 9.064C50.1892 9.66133 50.3619 10.3567 50.3619 11.15C50.3619 11.9433 50.1846 12.6433 49.8299 13.25C49.4846 13.8473 49.0132 14.3093 48.4159 14.636C47.8186 14.9627 47.1559 15.126 46.4279 15.126ZM46.4279 14.006C46.8852 14.006 47.3146 13.8987 47.7159 13.684C48.1172 13.4693 48.4392 13.1473 48.6819 12.718C48.9339 12.2887 49.0599 11.766 49.0599 11.15C49.0599 10.534 48.9386 10.0113 48.6959 9.582C48.4532 9.15267 48.1359 8.83533 47.7439 8.63C47.3519 8.41533 46.9272 8.308 46.4699 8.308C46.0032 8.308 45.5739 8.41533 45.1819 8.63C44.7992 8.83533 44.4912 9.15267 44.2579 9.582C44.0246 10.0113 43.9079 10.534 43.9079 11.15C43.9079 11.7753 44.0199 12.3027 44.2439 12.732C44.4772 13.1613 44.7852 13.4833 45.1679 13.698C45.5506 13.9033 45.9706 14.006 46.4279 14.006ZM55.201 7.202C55.8637 7.202 56.4423 7.34667 56.937 7.636C57.441 7.92533 57.8143 8.28933 58.057 8.728V7.328H59.345V15.168C59.345 15.868 59.1957 16.4887 58.897 17.03C58.5983 17.5807 58.169 18.01 57.609 18.318C57.0583 18.626 56.4143 18.78 55.677 18.78C54.669 18.78 53.829 18.542 53.157 18.066C52.485 17.59 52.0883 16.9413 51.967 16.12H53.227C53.367 16.5867 53.6563 16.96 54.095 17.24C54.5337 17.5293 55.061 17.674 55.677 17.674C56.377 17.674 56.9463 17.4547 57.385 17.016C57.833 16.5773 58.057 15.9613 58.057 15.168V13.558C57.805 14.006 57.4317 14.3793 56.937 14.678C56.4423 14.9767 55.8637 15.126 55.201 15.126C54.5197 15.126 53.899 14.958 53.339 14.622C52.7883 14.286 52.3543 13.8147 52.037 13.208C51.7197 12.6013 51.561 11.9107 51.561 11.136C51.561 10.352 51.7197 9.666 52.037 9.078C52.3543 8.48067 52.7883 8.01867 53.339 7.692C53.899 7.36533 54.5197 7.202 55.201 7.202ZM58.057 11.15C58.057 10.5713 57.9403 10.0673 57.707 9.638C57.4737 9.20867 57.1563 8.882 56.755 8.658C56.363 8.42467 55.929 8.308 55.453 8.308C54.977 8.308 54.543 8.42 54.151 8.644C53.759 8.868 53.4463 9.19467 53.213 9.624C52.9797 10.0533 52.863 10.5573 52.863 11.136C52.863 11.724 52.9797 12.2373 53.213 12.676C53.4463 13.1053 53.759 13.4367 54.151 13.67C54.543 13.894 54.977 14.006 55.453 14.006C55.929 14.006 56.363 13.894 56.755 13.67C57.1563 13.4367 57.4737 13.1053 57.707 12.676C57.9403 12.2373 58.057 11.7287 58.057 11.15ZM62.1559 6.082C61.9133 6.082 61.7079 5.998 61.5399 5.83C61.3719 5.662 61.2879 5.45667 61.2879 5.214C61.2879 4.97133 61.3719 4.766 61.5399 4.598C61.7079 4.43 61.9133 4.346 62.1559 4.346C62.3893 4.346 62.5853 4.43 62.7439 4.598C62.9119 4.766 62.9959 4.97133 62.9959 5.214C62.9959 5.45667 62.9119 5.662 62.7439 5.83C62.5853 5.998 62.3893 6.082 62.1559 6.082ZM62.7719 7.328V15H61.4979V7.328H62.7719ZM68.6812 7.188C69.6146 7.188 70.3706 7.47267 70.9492 8.042C71.5279 8.602 71.8172 9.414 71.8172 10.478V15H70.5572V10.66C70.5572 9.89467 70.3659 9.31133 69.9832 8.91C69.6006 8.49933 69.0779 8.294 68.4152 8.294C67.7432 8.294 67.2066 8.504 66.8052 8.924C66.4132 9.344 66.2172 9.95533 66.2172 10.758V15H64.9432V7.328H66.2172V8.42C66.4692 8.028 66.8099 7.72467 67.2392 7.51C67.6779 7.29533 68.1586 7.188 68.6812 7.188ZM87.8507 7.328L85.4567 15H84.1407L82.2927 8.91L80.4447 15H79.1287L76.7207 7.328H78.0227L79.7867 13.768L81.6907 7.328H82.9927L84.8547 13.782L86.5907 7.328H87.8507ZM89.7731 6.082C89.5304 6.082 89.3251 5.998 89.1571 5.83C88.9891 5.662 88.9051 5.45667 88.9051 5.214C88.9051 4.97133 88.9891 4.766 89.1571 4.598C89.3251 4.43 89.5304 4.346 89.7731 4.346C90.0064 4.346 90.2024 4.43 90.3611 4.598C90.5291 4.766 90.6131 4.97133 90.6131 5.214C90.6131 5.45667 90.5291 5.662 90.3611 5.83C90.2024 5.998 90.0064 6.082 89.7731 6.082ZM90.3891 7.328V15H89.1151V7.328H90.3891ZM94.1144 8.378V12.9C94.1144 13.2733 94.1938 13.5393 94.3524 13.698C94.5111 13.8473 94.7864 13.922 95.1784 13.922H96.1164V15H94.9684C94.2591 15 93.7271 14.8367 93.3724 14.51C93.0178 14.1833 92.8404 13.6467 92.8404 12.9V8.378H91.8464V7.328H92.8404V5.396H94.1144V7.328H96.1164V8.378H94.1144ZM101.468 7.188C102.047 7.188 102.569 7.314 103.036 7.566C103.503 7.80867 103.867 8.17733 104.128 8.672C104.399 9.16667 104.534 9.76867 104.534 10.478V15H103.274V10.66C103.274 9.89467 103.083 9.31133 102.7 8.91C102.317 8.49933 101.795 8.294 101.132 8.294C100.46 8.294 99.9234 8.504 99.522 8.924C99.13 9.344 98.934 9.95533 98.934 10.758V15H97.66V4.64H98.934V8.42C99.186 8.028 99.5314 7.72467 99.97 7.51C100.418 7.29533 100.917 7.188 101.468 7.188Z" fill="#474747"/>
<line x1="112" y1="9.5" x2="122" y2="9.5" stroke="#006EE9"/>
</svg>
