<svg width="138" height="20" viewBox="0 0 138 20" fill="none" xmlns="http://www.w3.org/2000/svg">
<line y1="9.5" x2="10" y2="9.5" stroke="#006EE9"/>
<path d="M19.502 15.098C18.5967 15.098 17.7707 14.888 17.024 14.468C16.2773 14.0387 15.6847 13.446 15.246 12.69C14.8167 11.9247 14.602 11.066 14.602 10.114C14.602 9.162 14.8167 8.308 15.246 7.552C15.6847 6.78667 16.2773 6.194 17.024 5.774C17.7707 5.34467 18.5967 5.13 19.502 5.13C20.4167 5.13 21.2473 5.34467 21.994 5.774C22.7407 6.194 23.3287 6.782 23.758 7.538C24.1873 8.294 24.402 9.15267 24.402 10.114C24.402 11.0753 24.1873 11.934 23.758 12.69C23.3287 13.446 22.7407 14.0387 21.994 14.468C21.2473 14.888 20.4167 15.098 19.502 15.098ZM19.502 13.992C20.1833 13.992 20.7947 13.8333 21.336 13.516C21.8867 13.1987 22.316 12.746 22.624 12.158C22.9413 11.57 23.1 10.8887 23.1 10.114C23.1 9.33 22.9413 8.64867 22.624 8.07C22.316 7.482 21.8913 7.02933 21.35 6.712C20.8087 6.39467 20.1927 6.236 19.502 6.236C18.8113 6.236 18.1953 6.39467 17.654 6.712C17.1127 7.02933 16.6833 7.482 16.366 8.07C16.058 8.64867 15.904 9.33 15.904 10.114C15.904 10.8887 16.058 11.57 16.366 12.158C16.6833 12.746 17.1127 13.1987 17.654 13.516C18.2047 13.8333 18.8207 13.992 19.502 13.992ZM27.3579 8.574C27.5819 8.13533 27.8992 7.79467 28.3099 7.552C28.7299 7.30933 29.2385 7.188 29.8359 7.188V8.504H29.4999C28.0719 8.504 27.3579 9.27867 27.3579 10.828V15H26.0839V7.328H27.3579V8.574ZM40.1769 15L37.8529 11.01H36.3129V15H35.0389V5.242H38.1889C38.9263 5.242 39.5469 5.368 40.0509 5.62C40.5643 5.872 40.9469 6.21267 41.1989 6.642C41.4509 7.07133 41.5769 7.56133 41.5769 8.112C41.5769 8.784 41.3809 9.37667 40.9889 9.89C40.6063 10.4033 40.0276 10.744 39.2529 10.912L41.7029 15H40.1769ZM36.3129 9.988H38.1889C38.8796 9.988 39.3976 9.82 39.7429 9.484C40.0883 9.13867 40.2609 8.68133 40.2609 8.112C40.2609 7.53333 40.0883 7.08533 39.7429 6.768C39.4069 6.45067 38.8889 6.292 38.1889 6.292H36.3129V9.988ZM50.5565 10.87C50.5565 11.1127 50.5425 11.3693 50.5145 11.64H44.3825C44.4292 12.396 44.6858 12.9887 45.1525 13.418C45.6285 13.838 46.2025 14.048 46.8745 14.048C47.4252 14.048 47.8825 13.922 48.2465 13.67C48.6198 13.4087 48.8812 13.0633 49.0305 12.634H50.4025C50.1972 13.3713 49.7865 13.9733 49.1705 14.44C48.5545 14.8973 47.7892 15.126 46.8745 15.126C46.1465 15.126 45.4932 14.9627 44.9145 14.636C44.3452 14.3093 43.8972 13.8473 43.5705 13.25C43.2438 12.6433 43.0805 11.9433 43.0805 11.15C43.0805 10.3567 43.2392 9.66133 43.5565 9.064C43.8738 8.46667 44.3172 8.00933 44.8865 7.692C45.4652 7.36533 46.1278 7.202 46.8745 7.202C47.6025 7.202 48.2465 7.36067 48.8065 7.678C49.3665 7.99533 49.7958 8.434 50.0945 8.994C50.4025 9.54467 50.5565 10.17 50.5565 10.87ZM49.2405 10.604C49.2405 10.1187 49.1332 9.70333 48.9185 9.358C48.7038 9.00333 48.4098 8.73733 48.0365 8.56C47.6725 8.37333 47.2665 8.28 46.8185 8.28C46.1745 8.28 45.6238 8.48533 45.1665 8.896C44.7185 9.30667 44.4618 9.876 44.3965 10.604H49.2405ZM55.4022 7.202C56.0648 7.202 56.6435 7.34667 57.1382 7.636C57.6422 7.92533 58.0155 8.28933 58.2582 8.728V7.328H59.5462V15.168C59.5462 15.868 59.3968 16.4887 59.0982 17.03C58.7995 17.5807 58.3702 18.01 57.8102 18.318C57.2595 18.626 56.6155 18.78 55.8782 18.78C54.8702 18.78 54.0302 18.542 53.3582 18.066C52.6862 17.59 52.2895 16.9413 52.1682 16.12H53.4282C53.5682 16.5867 53.8575 16.96 54.2962 17.24C54.7348 17.5293 55.2622 17.674 55.8782 17.674C56.5782 17.674 57.1475 17.4547 57.5862 17.016C58.0342 16.5773 58.2582 15.9613 58.2582 15.168V13.558C58.0062 14.006 57.6328 14.3793 57.1382 14.678C56.6435 14.9767 56.0648 15.126 55.4022 15.126C54.7208 15.126 54.1002 14.958 53.5402 14.622C52.9895 14.286 52.5555 13.8147 52.2382 13.208C51.9208 12.6013 51.7622 11.9107 51.7622 11.136C51.7622 10.352 51.9208 9.666 52.2382 9.078C52.5555 8.48067 52.9895 8.01867 53.5402 7.692C54.1002 7.36533 54.7208 7.202 55.4022 7.202ZM58.2582 11.15C58.2582 10.5713 58.1415 10.0673 57.9082 9.638C57.6748 9.20867 57.3575 8.882 56.9562 8.658C56.5642 8.42467 56.1302 8.308 55.6542 8.308C55.1782 8.308 54.7442 8.42 54.3522 8.644C53.9602 8.868 53.6475 9.19467 53.4142 9.624C53.1808 10.0533 53.0642 10.5573 53.0642 11.136C53.0642 11.724 53.1808 12.2373 53.4142 12.676C53.6475 13.1053 53.9602 13.4367 54.3522 13.67C54.7442 13.894 55.1782 14.006 55.6542 14.006C56.1302 14.006 56.5642 13.894 56.9562 13.67C57.3575 13.4367 57.6748 13.1053 57.9082 12.676C58.1415 12.2373 58.2582 11.7287 58.2582 11.15ZM62.3571 6.082C62.1144 6.082 61.9091 5.998 61.7411 5.83C61.5731 5.662 61.4891 5.45667 61.4891 5.214C61.4891 4.97133 61.5731 4.766 61.7411 4.598C61.9091 4.43 62.1144 4.346 62.3571 4.346C62.5904 4.346 62.7864 4.43 62.9451 4.598C63.1131 4.766 63.1971 4.97133 63.1971 5.214C63.1971 5.45667 63.1131 5.662 62.9451 5.83C62.7864 5.998 62.5904 6.082 62.3571 6.082ZM62.9731 7.328V15H61.6991V7.328H62.9731ZM67.8604 15.126C67.2724 15.126 66.7451 15.028 66.2784 14.832C65.8117 14.6267 65.4431 14.3467 65.1724 13.992C64.9017 13.628 64.7524 13.2127 64.7244 12.746H66.0404C66.0777 13.1287 66.2551 13.4413 66.5724 13.684C66.8991 13.9267 67.3237 14.048 67.8464 14.048C68.3317 14.048 68.7144 13.9407 68.9944 13.726C69.2744 13.5113 69.4144 13.2407 69.4144 12.914C69.4144 12.578 69.2651 12.3307 68.9664 12.172C68.6677 12.004 68.2057 11.8407 67.5804 11.682C67.0111 11.5327 66.5444 11.3833 66.1804 11.234C65.8257 11.0753 65.5177 10.8467 65.2564 10.548C65.0044 10.24 64.8784 9.83867 64.8784 9.344C64.8784 8.952 64.9951 8.59267 65.2284 8.266C65.4617 7.93933 65.7931 7.68267 66.2224 7.496C66.6517 7.3 67.1417 7.202 67.6924 7.202C68.5417 7.202 69.2277 7.41667 69.7504 7.846C70.2731 8.27533 70.5531 8.86333 70.5904 9.61H69.3164C69.2884 9.20867 69.1251 8.88667 68.8264 8.644C68.5371 8.40133 68.1451 8.28 67.6504 8.28C67.1931 8.28 66.8291 8.378 66.5584 8.574C66.2877 8.77 66.1524 9.02667 66.1524 9.344C66.1524 9.596 66.2317 9.806 66.3904 9.974C66.5584 10.1327 66.7637 10.2633 67.0064 10.366C67.2584 10.4593 67.6037 10.5667 68.0424 10.688C68.5931 10.8373 69.0411 10.9867 69.3864 11.136C69.7317 11.276 70.0257 11.4907 70.2684 11.78C70.5204 12.0693 70.6511 12.4473 70.6604 12.914C70.6604 13.334 70.5437 13.712 70.3104 14.048C70.0771 14.384 69.7457 14.65 69.3164 14.846C68.8964 15.0327 68.4111 15.126 67.8604 15.126ZM74.0129 8.378V12.9C74.0129 13.2733 74.0922 13.5393 74.2509 13.698C74.4095 13.8473 74.6849 13.922 75.0769 13.922H76.0149V15H74.8669C74.1575 15 73.6255 14.8367 73.2709 14.51C72.9162 14.1833 72.7389 13.6467 72.7389 12.9V8.378H71.7449V7.328H72.7389V5.396H74.0129V7.328H76.0149V8.378H74.0129ZM84.5585 10.87C84.5585 11.1127 84.5445 11.3693 84.5165 11.64H78.3845C78.4311 12.396 78.6878 12.9887 79.1545 13.418C79.6305 13.838 80.2045 14.048 80.8765 14.048C81.4271 14.048 81.8845 13.922 82.2485 13.67C82.6218 13.4087 82.8831 13.0633 83.0325 12.634H84.4045C84.1991 13.3713 83.7885 13.9733 83.1725 14.44C82.5565 14.8973 81.7911 15.126 80.8765 15.126C80.1485 15.126 79.4951 14.9627 78.9165 14.636C78.3471 14.3093 77.8991 13.8473 77.5725 13.25C77.2458 12.6433 77.0825 11.9433 77.0825 11.15C77.0825 10.3567 77.2411 9.66133 77.5585 9.064C77.8758 8.46667 78.3191 8.00933 78.8885 7.692C79.4671 7.36533 80.1298 7.202 80.8765 7.202C81.6045 7.202 82.2485 7.36067 82.8085 7.678C83.3685 7.99533 83.7978 8.434 84.0965 8.994C84.4045 9.54467 84.5585 10.17 84.5585 10.87ZM83.2425 10.604C83.2425 10.1187 83.1351 9.70333 82.9205 9.358C82.7058 9.00333 82.4118 8.73733 82.0385 8.56C81.6745 8.37333 81.2685 8.28 80.8205 8.28C80.1765 8.28 79.6258 8.48533 79.1685 8.896C78.7205 9.30667 78.4638 9.876 78.3985 10.604H83.2425ZM87.5141 8.574C87.7381 8.13533 88.0554 7.79467 88.4661 7.552C88.8861 7.30933 89.3948 7.188 89.9921 7.188V8.504H89.6561C88.2281 8.504 87.5141 9.27867 87.5141 10.828V15H86.2401V7.328H87.5141V8.574ZM105.415 7.328L103.021 15H101.705L99.8572 8.91L98.0092 15H96.6932L94.2852 7.328H95.5872L97.3512 13.768L99.2552 7.328H100.557L102.419 13.782L104.155 7.328H105.415ZM107.338 6.082C107.095 6.082 106.89 5.998 106.722 5.83C106.554 5.662 106.47 5.45667 106.47 5.214C106.47 4.97133 106.554 4.766 106.722 4.598C106.89 4.43 107.095 4.346 107.338 4.346C107.571 4.346 107.767 4.43 107.926 4.598C108.094 4.766 108.178 4.97133 108.178 5.214C108.178 5.45667 108.094 5.662 107.926 5.83C107.767 5.998 107.571 6.082 107.338 6.082ZM107.954 7.328V15H106.68V7.328H107.954ZM111.679 8.378V12.9C111.679 13.2733 111.758 13.5393 111.917 13.698C112.076 13.8473 112.351 13.922 112.743 13.922H113.681V15H112.533C111.824 15 111.292 14.8367 110.937 14.51C110.582 14.1833 110.405 13.6467 110.405 12.9V8.378H109.411V7.328H110.405V5.396H111.679V7.328H113.681V8.378H111.679ZM119.032 7.188C119.611 7.188 120.134 7.314 120.6 7.566C121.067 7.80867 121.431 8.17733 121.692 8.672C121.963 9.16667 122.098 9.76867 122.098 10.478V15H120.838V10.66C120.838 9.89467 120.647 9.31133 120.264 8.91C119.882 8.49933 119.359 8.294 118.696 8.294C118.024 8.294 117.488 8.504 117.086 8.924C116.694 9.344 116.498 9.95533 116.498 10.758V15H115.224V4.64H116.498V8.42C116.75 8.028 117.096 7.72467 117.534 7.51C117.982 7.29533 118.482 7.188 119.032 7.188Z" fill="#474747"/>
<line x1="128" y1="9.5" x2="138" y2="9.5" stroke="#006EE9"/>
</svg>
